<?xml version="1.0" standalone="no"?><!DOCTYPE svg PUBLIC "-//W3C//DTD SVG 1.1//EN" "http://www.w3.org/Graphics/SVG/1.1/DTD/svg11.dtd"><svg t="1757474369739" class="icon" viewBox="0 0 1024 1024" version="1.1" xmlns="http://www.w3.org/2000/svg" p-id="7954" xmlns:xlink="http://www.w3.org/1999/xlink" width="256" height="256"><path d="M960.363 805.578v-477.05c0-54.626-29.431-93.273-82.558-93.273H758.617l-30.16-61.929c-16.492-33.456-50.937-54.631-86.839-54.631H393.221c-36.53 0-70.349 21.175-86.841 54.631l-30.158 61.929H173.519c-56.777 0-109.899 42.245-109.899 93.273v477.05c0 53.146 55.312 99.727 109.899 99.727H878.64c50.937 0 82.559-42.977 81.723-99.727z m-43.003 0c0 26.999-7.092 56.113-39.448 56.113H173.519c-30.16 0-66.796-27.74-66.796-56.113v-477.05c0-30.592 38.093-49.543 66.796-49.543H303.46l42.374-85.969c9.394-18.211 27.975-30.597 48.115-30.597h246.938c20.146 0 38.823 11.646 48.113 30.597l42.376 85.969h146.535c28.701 0 39.448 18.951 39.448 49.543v477.05zM602.587 700.24c-54.587 31.336-124.934 29.855-175.866-8.05-41.646-31.335-65.336-80.14-65.336-131.065h69.619c1.458 0 2.191-2.967 1.458-4.342l-89.134-116.558c-0.727-0.746-2.19-1.485-2.92 0l-88.922 116.558c-0.728 1.484 0 4.342 1.463 4.342h65.332c0 65.533 30.164 126.724 82.557 166.109 35.175 26.258 77.551 38.642 120.655 38.642 35.172 0 70.341-9.417 101.968-26.995 11.374-6.565 14.294-21.919 6.365-32.082-6.473-8.78-17.956-11.639-27.239-6.559z m190.264-141.232l-67.529 2.967c0.735-65.535-29.43-130.328-82.552-169.712-64.61-48.067-152.905-52.403-221.892-12.387-11.483 6.565-14.403 21.174-6.474 32.084 6.474 8.78 17.955 11.638 27.245 6.559 54.585-31.338 124.929-28.371 175.86 9.422 42.374 32.082 66.065 83.746 65.338 136.148l-67.529 2.967c-1.458 0-2.193 2.223-1.458 2.964l94.035 112.12c0.728 0.736 2.191 0.736 2.92 0l84.02-119.424c0.835-1.591 0.102-3.708-1.984-3.708z" fill="#ffffff" p-id="7955"></path></svg>